<?xml version="1.0" encoding="UTF-8" standalone="no"?>
<svg width="155px" height="80px" viewBox="0 0 155 80" version="1.1" xmlns="http://www.w3.org/2000/svg" xmlns:xlink="http://www.w3.org/1999/xlink" xmlns:sketch="http://www.bohemiancoding.com/sketch/ns">
    <!-- Generator: Sketch 3.4.4 (17249) - http://www.bohemiancoding.com/sketch -->
    <title>Rectangle 14 + PASSE’PLUME + feather</title>
    <desc>Created with Sketch.</desc>
    <defs></defs>
    <g id="Responsive" stroke="none" stroke-width="1" fill="none" fill-rule="evenodd" sketch:type="MSPage">
        <g id="Desktop-HD-Copy-6" sketch:type="MSArtboardGroup" transform="translate(-878.000000, -216.000000)">
            <g id="Rectangle-14-+-PASSE’PLUME-+-feather" sketch:type="MSLayerGroup" transform="translate(878.000000, 216.000000)">
                <rect id="Rectangle-14" stroke="#EAEAEA" stroke-width="5" sketch:type="MSShapeGroup" x="55" y="6" width="55" height="74"></rect>
                <text id="PASSE’PLUME" sketch:type="MSTextLayer" font-family="Roboto" font-size="10" font-weight="bold" sketch:alignment="middle" letter-spacing="8.94999981" fill="#848484">
                    <tspan x="0.155372143" y="59">PASSE’</tspan>
                    <tspan x="86.3797851" y="59">PLUME</tspan>
                </text>
                <g id="feather" transform="translate(66.000000, 0.000000)" fill="#B6B6B6" sketch:type="MSShapeGroup">
                    <path d="M3.78098701,2.20457143 C5.02316883,2.34814286 14.3846234,4.263 29.4237922,29.6297143 L29.4923636,29.5812857 C29.6120519,28.9975714 30.5358961,28.0838571 30.7453506,27.4414286 C30.9548052,26.799 30.8268052,25.9748571 30.8268052,25.9748571 C30.3833766,27.159 29.5347532,27.375 29.5347532,27.375 C30.473974,26.6717143 30.9776623,24.117 30.9776623,24.117 C30.2474805,25.2445714 27.5719481,25.8437143 27.5719481,25.8437143 C27.8661818,25.2012857 28.6749091,24.4341429 28.6749091,24.4341429 C29.2708571,20.9507143 26.6954805,18.7375714 26.6954805,18.7375714 C26.6052987,20.1021429 24.6807273,21.7148571 24.6807273,21.7148571 C24.6807273,21.7148571 25.8235844,20.4741429 26.1843117,18.5515714 C26.545039,16.6285714 25.6128831,16.8767143 24.5302857,16.1944286 C23.4476883,15.5121429 23.0267013,13.9615714 23.0267013,13.9615714 C22.816,13.062 21.582961,12.3797143 21.582961,12.3797143 C21.3722597,11.5114286 20.049039,10.767 19.3874286,9.74357143 C18.7258182,8.72014286 17.974026,7.04528571 17.974026,7.04528571 C18.1244675,8.09957143 17.7334026,9.71228571 17.7334026,9.71228571 C18.0342857,5.80457143 16.0191169,4.96714286 16.0191169,4.96714286 C16.0191169,6.20785714 15.4177662,7.32428571 15.4177662,7.32428571 C15.7485714,6.363 15.5682078,4.96714286 15.5682078,4.96714286 C14.7860779,2.98242857 11.8391688,2.61 11.8391688,2.61 C12.0498701,3.50957143 11.9293506,3.81942857 11.9293506,3.81942857 C11.6284675,2.48571429 10.6360519,2.02071429 10.6360519,2.02071429 C9.04228571,2.39271429 7.1172987,1.21457143 6.12488312,0.594 C5.13246753,-0.0261428571 4.16997403,0.122571429 4.16997403,0.122571429 C3.02711688,0.122571429 1.61371429,1.63157143 1.61371429,1.63157143 C1.61371429,1.63157143 3.0907013,1.16485714 3.78098701,2.20457143 L3.78098701,2.20457143 Z M21.5326753,12.6694286 C21.5326753,12.6694286 21.819013,14.589 21.0173506,16.1537143 C21.0173506,16.1541429 21.4948571,14.412 21.5326753,12.6694286 L21.5326753,12.6694286 Z" id="Shape"></path>
                    <path d="M31.9933506,35.8928571 L28.5772468,30.2275714 C28.4592208,30.027 28.342026,29.8277143 28.2248312,29.6297143 C13.6922597,5.08414286 5.02732468,2.47414286 3.79387013,2.21957143 C3.79844156,2.22685714 3.80509091,2.23071429 3.80966234,2.238 C3.80966234,2.238 2.84716883,2.517 2.30607792,2.95114286 C1.76457143,3.38528571 1.1332987,3.75728571 0.140883117,3.63342857 C0.140883117,3.63342857 1.58462338,5.68028571 4.98285714,6.02142857 C4.98285714,6.02142857 4.89267532,6.23871429 3.77974026,6.17657143 C3.77974026,6.17657143 6.06545455,9.27814286 8.11054545,8.81271429 C8.11054545,8.81271429 10.2158961,8.09957143 11.8699221,8.31642857 C11.8699221,8.31642857 9.76457143,9.18685714 8.59179221,8.86028571 C8.59179221,8.86028571 9.37350649,10.2702857 10.606961,11.0455714 C11.84,11.8208571 13.4641039,12.162 15.2382338,12.0068571 C15.2382338,12.0068571 11.6878961,13.7314286 10.3060779,11.3245714 C10.3060779,11.3245714 11.3587532,14.3948571 15.598961,13.6817143 C15.598961,13.6817143 15.3583377,14.3948571 14.5766234,14.7672857 C13.7944935,15.1392857 12.5315325,14.7051429 12.1708052,14.364 C12.1708052,14.364 12.681974,15.2944286 14.0654545,15.9458571 C14.0654545,15.9458571 14.8475844,18.1478571 16.260987,18.9852857 C16.260987,18.9852857 17.3136623,21.9934286 19.7194805,21.5592857 C22.1252987,21.1251429 22.9672727,21.6021429 22.9672727,21.6021429 C22.9672727,21.6021429 20.9824416,21.8074286 20.0199481,22.1794286 C19.1214545,22.527 17.8580779,22.0332857 17.4483117,21.3381429 C17.8884156,22.2051429 20.2589091,26.5337143 23.5083636,26.0871429 C23.5083636,26.0871429 24.8428052,25.686 25.7101299,25.7772857 C25.7101299,25.7772857 23.3304935,28.3744286 21.6685714,28.452 C21.6685714,28.452 24.6811429,29.5607143 26.0347013,28.9714286 C26.0347013,28.9714286 25.2525714,29.778 23.7190649,29.4985714 C23.7190649,29.4985714 24.5011948,30.1808571 25.3128312,30.3668571 C26.0151688,30.528 27.2777143,30.2262857 28.0544416,30.3021429 C28.8947532,31.6144286 30.7025455,34.4768571 31.1301818,35.4745714 L31.9933506,35.8928571 L31.9933506,35.8928571 Z M16.6861299,18.9081429 C16.6861299,18.9081429 18.4299221,18.6985714 20.0058182,18.0694286 C20.0058182,18.0694286 18.395013,19.0752857 16.6861299,18.9081429 L16.6861299,18.9081429 Z" id="Shape"></path>
                </g>
            </g>
        </g>
    </g>
</svg>