<?xml version="1.0" encoding="UTF-8" standalone="no"?>
<svg width="87px" height="87px" viewBox="0 0 87 87" version="1.1" xmlns="http://www.w3.org/2000/svg" xmlns:xlink="http://www.w3.org/1999/xlink" xmlns:sketch="http://www.bohemiancoding.com/sketch/ns">
    <!-- Generator: Sketch 3.4.4 (17249) - http://www.bohemiancoding.com/sketch -->
    <title>Oval 3 Copy + Shape</title>
    <desc>Created with Sketch.</desc>
    <defs></defs>
    <g id="Responsive" stroke="none" stroke-width="1" fill="none" fill-rule="evenodd" sketch:type="MSPage">
        <g id="Desktop-HD-Copy" sketch:type="MSArtboardGroup" transform="translate(-1053.000000, -1479.000000)">
            <g id="Group" sketch:type="MSLayerGroup" transform="translate(240.000000, 1436.000000)">
                <g id="Oval-3-Copy-+-Shape" transform="translate(814.000000, 44.000000)" sketch:type="MSShapeGroup">
                    <circle id="Oval-3-Copy" stroke="#878787" cx="42.5" cy="42.5" r="42.5"></circle>
                    <path d="M43,23 C32,23 23,32 23,43 C23,54 32,63 43,63 C54,63 63,54 63,43 C63,32 54,23 43,23 L43,23 Z M45,53 L41,53 L41,41 L45,41 L45,53 L45,53 Z M45,37 L41,37 L41,33 L45,33 L45,37 L45,37 Z" id="Shape" fill="#878787"></path>
                </g>
            </g>
        </g>
    </g>
</svg>