<?xml version="1.0" encoding="UTF-8" standalone="no"?>
<svg width="169px" height="124px" viewBox="0 0 169 124" version="1.1" xmlns="http://www.w3.org/2000/svg" xmlns:xlink="http://www.w3.org/1999/xlink" xmlns:sketch="http://www.bohemiancoding.com/sketch/ns">
    <!-- Generator: Sketch 3.4.4 (17249) - http://www.bohemiancoding.com/sketch -->
    <title> ” copy 2</title>
    <desc>Created with Sketch.</desc>
    <defs></defs>
    <g id="Responsive" stroke="none" stroke-width="1" fill="none" fill-rule="evenodd" sketch:type="MSPage">
        <g id="Desktop-HD-Copy" sketch:type="MSArtboardGroup" transform="translate(-790.000000, -3161.000000)" fill="#F1F3F5">
            <g id="Group" sketch:type="MSLayerGroup" transform="translate(668.000000, 3059.865217)">
                <path d="M124.502518,224.266329 L124.502518,211.827724 C154.851847,205.882197 170.026284,188.906409 170.026284,160.89985 C170.026284,151.042793 167.13219,146.114338 161.343916,146.114338 C160.092397,146.114338 158.528022,146.349026 156.650744,146.81841 C153.052628,147.913638 149.923878,148.461245 147.264401,148.461245 C139.598849,148.461245 133.497786,146.036132 128.961031,141.185834 C124.424276,136.335536 122.155932,130.859475 122.155932,124.757487 C122.155932,118.6555 124.463385,113.218554 129.07836,108.446486 C133.693336,103.674419 139.67707,101.288421 147.029742,101.288421 C157.041892,101.288421 165.763282,105.982187 173.194174,115.369861 C180.625067,124.757534 184.340457,137.352474 184.340457,153.155058 C184.340457,171.30456 179.138911,186.754874 168.735661,199.506464 C158.332412,212.258054 143.588178,220.51126 124.502518,224.266329 L124.502518,224.266329 Z M230.802857,224.266329 L230.802857,211.827724 C261.152186,205.882197 276.326623,188.906409 276.326623,160.89985 C276.326623,151.042793 273.35431,146.114338 267.409596,146.114338 C266.314517,146.114338 264.750142,146.349026 262.716425,146.81841 C259.118308,147.913638 255.989558,148.461245 253.330081,148.461245 C245.820969,148.461245 239.759016,146.036132 235.144041,141.185834 C230.529066,136.335536 228.221613,130.859475 228.221613,124.757487 C228.221613,118.968422 230.450847,113.609706 234.909382,108.681177 C239.367918,103.752648 245.42987,101.288421 253.095423,101.288421 C263.107572,101.288421 271.828962,105.982187 279.259855,115.369861 C286.690747,124.757534 290.406138,137.352474 290.406138,153.155058 C290.406138,171.30456 285.204591,186.754874 274.801342,199.506464 C264.398092,212.258054 249.732078,220.51126 230.802857,224.266329 L230.802857,224.266329 Z" id="-”-copy-2" sketch:type="MSShapeGroup" transform="translate(206.281035, 162.777375) scale(-1, 1) translate(-206.281035, -162.777375) "></path>
            </g>
        </g>
    </g>
</svg>