<?xml version="1.0" encoding="UTF-8" standalone="no"?>
<svg width="87px" height="87px" viewBox="0 0 87 87" version="1.1" xmlns="http://www.w3.org/2000/svg" xmlns:xlink="http://www.w3.org/1999/xlink" xmlns:sketch="http://www.bohemiancoding.com/sketch/ns">
    <!-- Generator: Sketch 3.4.4 (17249) - http://www.bohemiancoding.com/sketch -->
    <title>Oval 3 + account-circle</title>
    <desc>Created with Sketch.</desc>
    <defs></defs>
    <g id="Responsive" stroke="none" stroke-width="1" fill="none" fill-rule="evenodd" sketch:type="MSPage">
        <g id="Desktop-HD-Copy" sketch:type="MSArtboardGroup" transform="translate(-323.000000, -1479.000000)">
            <g id="Group" sketch:type="MSLayerGroup" transform="translate(240.000000, 1436.000000)">
                <g id="Oval-3-+-account-circle" transform="translate(84.000000, 44.000000)" sketch:type="MSShapeGroup">
                    <circle id="Oval-3" stroke="#878787" cx="42.5" cy="42.5" r="42.5"></circle>
                    <g id="account-circle" transform="translate(23.000000, 23.000000)" fill="#878787">
                        <path d="M20,0 C9,0 0,9 0,20 C0,31 9,40 20,40 C31,40 40,31 40,20 C40,9 31,0 20,0 L20,0 Z M20,6 C23.4,6 26,8.6 26,12 C26,15.4 23.4,18 20,18 C16.6,18 14,15.4 14,12 C14,8.6 16.6,6 20,6 L20,6 Z M20,34.4 C15,34.4 10.6,31.8 8,28 C8,24 16,21.8 20,21.8 C24,21.8 32,24 32,28 C29.4,31.8 25,34.4 20,34.4 L20,34.4 Z" id="Shape"></path>
                    </g>
                </g>
            </g>
        </g>
    </g>
</svg>